# File created by Blade
# Date/Time:  Thu Jan 22 15:49:58 2015
# Frame Rate: 120.000 fps
#------------------------------------------------------
:FULLY-SPECIFIED
:DEGREES
1782
root 2.958074 37.184655 4.162058 -6.350822 0.600864 2.467557
RightUpLeg 13.476235 -7.010581 -5.230255
RightLeg -4.306644 -0.000000 0.000000
RightFoot -12.039762 -15.286524 16.884061
RightToeBase 13.449754 -0.000000 -0.000000
LeftUpLeg 10.577782 3.472829 2.317024
LeftLeg -1.140177 -0.000000 0.000000
LeftFoot -6.048515 6.566892 -17.028468
LeftToeBase 8.905969 -0.000000 -0.000000
Spine 4.464096 0.063953 -1.522584
RightShoulder 3.446649 25.043666 -46.673747
RightArm 121.614060 -9.249577 56.798398
RightForeArm 27.716042 -0.000000 129.032966
RightHand 8.006379 -0.000000 13.130732
RightHandThumb1 -24.326973 -0.000000 -32.862282
LeftShoulder 0.149574 21.253883 12.727789
LeftArm 73.293803 1.672028 -77.113047
LeftForeArm -42.199707 -0.000000 120.048750
LeftHand -12.609424 -0.000000 -29.194132
LeftHandThumb1 -26.253704 0.000000 33.147579
Head -4.603694 -16.303440 7.864420
1783
root 2.960823 37.185559 4.159795 -6.342357 0.629629 2.475006
RightUpLeg 13.469874 -7.005652 -5.239739
RightLeg -4.306587 -0.000000 0.000000
RightFoot -12.041937 -15.300699 16.899337
RightToeBase 13.450067 -0.000000 -0.000000
LeftUpLeg 10.555506 3.485474 2.308723
LeftLeg -1.132311 -0.000000 0.000000
LeftFoot -6.026890 6.542009 -17.020849
LeftToeBase 8.860121 -0.000000 -0.000000
Spine 4.447754 0.102210 -1.529277
RightShoulder 3.493088 25.118730 -46.704147
RightArm 121.591459 -9.274212 56.826809
RightForeArm 27.632492 0.000000 129.038198
RightHand 8.064232 -0.000000 13.231694
RightHandThumb1 -24.326973 -0.000000 -32.862282
LeftShoulder 0.105523 21.209236 12.654753
LeftArm 73.243512 1.709455 -77.223842
LeftForeArm -42.129998 -0.000000 120.114579
LeftHand -12.574512 -0.000000 -29.141439
LeftHandThumb1 -26.253704 0.000000 33.147579
Head -4.589134 -16.233431 7.844384
1784
root 2.964506 37.185956 4.158511 -6.335165 0.657505 2.481138
RightUpLeg 13.464366 -7.034698 -5.254198
RightLeg -4.302375 -0.000000 0.000000
RightFoot -12.050506 -15.292489 16.907016
RightToeBase 13.500595 -0.000000 -0.000000
LeftUpLeg 10.542489 3.480812 2.296886
LeftLeg -1.133741 -0.000000 0.000000
LeftFoot -6.007417 6.521742 -17.013351
LeftToeBase 8.857951 -0.000000 -0.000000
Spine 4.425665 0.141658 -1.533059
RightShoulder 3.527291 25.148275 -46.720951
RightArm 121.640587 -9.271728 56.831276
RightForeArm 27.576710 -0.000000 129.038394
RightHand 8.106172 -0.000000 13.155808
RightHandThumb1 -24.326973 -0.000000 -32.862282
LeftShoulder 0.073232 21.179824 12.583788
LeftArm 73.219599 1.744630 -77.314551
LeftForeArm -42.112268 -0.000000 120.169269
LeftHand -12.554895 -0.000000 -29.076670
LeftHandThumb1 -26.253704 0.000000 33.147579
Head -4.569675 -16.147610 7.817471
1785
root 2.967670 37.186863 4.155689 -6.312945 0.681076 2.485997
RightUpLeg 13.438669 -7.045244 -5.258808
RightLeg -4.299151 -0.000000 0.000000
RightFoot -12.036833 -15.319568 16.897302
RightToeBase 13.453959 -0.000000 -0.000000
LeftUpLeg 10.514614 3.473073 2.286225
LeftLeg -1.137240 -0.000000 0.000000
LeftFoot -5.990370 6.505232 -17.002552
LeftToeBase 8.796159 -0.000000 -0.000000
Spine 4.384804 0.207760 -1.535383
RightShoulder 3.550278 25.116769 -46.715229
RightArm 121.745541 -9.234136 56.797981
RightForeArm 27.496799 -0.000000 129.030198
RightHand 8.483299 -0.000000 12.863812
RightHandThumb1 -24.326973 -0.000000 -32.862282
LeftShoulder 0.077947 21.167284 12.537250
LeftArm 73.209914 1.784376 -77.406553
LeftForeArm -42.088177 0.000000 120.220858
LeftHand -12.554721 -0.000000 -28.976892
LeftHandThumb1 -26.253704 0.000000 33.147579
Head -4.546122 -16.062933 7.796094
1786
root 2.971039 37.187625 4.153151 -6.291316 0.709394 2.492124
RightUpLeg 13.420952 -7.061313 -5.267028
RightLeg -4.308170 -0.000000 0.000000
RightFoot -12.021145 -15.339416 16.891366
RightToeBase 13.426973 -0.000000 -0.000000
LeftUpLeg 10.486263 3.477962 2.276392
LeftLeg -1.142166 -0.000000 0.000000
LeftFoot -5.963724 6.474826 -16.998811
LeftToeBase 8.857595 -0.000000 -0.000000
Spine 4.349087 0.251008 -1.544026
RightShoulder 3.583699 25.119910 -46.722973
RightArm 121.765293 -9.223251 56.806772
RightForeArm 27.531795 0.000000 129.062496
RightHand 8.263030 -0.000000 12.873788
RightHandThumb1 -24.326973 -0.000000 -32.862282
LeftShoulder 0.044373 21.180771 12.480220
LeftArm 73.234652 1.839703 -77.473930
LeftForeArm -42.043197 -0.000000 120.247439
LeftHand -12.509398 -0.000000 -28.915488
LeftHandThumb1 -26.253704 0.000000 33.147579
Head -4.526055 -15.975165 7.783391
1787
root 2.974473 37.188421 4.150560 -6.270213 0.743457 2.494492
RightUpLeg 13.412526 -7.067264 -5.270320
RightLeg -4.330327 -0.000000 0.000000
RightFoot -12.004095 -15.374377 16.884703
RightToeBase 13.436465 -0.000000 -0.000000
LeftUpLeg 10.456782 3.477557 2.267886
LeftLeg -1.138679 -0.000000 0.000000
LeftFoot -5.928036 6.444689 -16.941857
LeftToeBase 8.678883 -0.000000 -0.000000
Spine 4.312500 0.297902 -1.543035
RightShoulder 3.609826 25.127607 -46.755909
RightArm 121.760453 -9.196726 56.814362
RightForeArm 27.479219 0.000000 129.105592
RightHand 8.104660 -0.000000 12.833245
RightHandThumb1 -24.326973 -0.000000 -32.862282
LeftShoulder 0.013832 21.212415 12.419369
LeftArm 73.285738 1.916705 -77.477389
LeftForeArm -41.713278 0.000000 120.287078
LeftHand -12.332409 -0.000000 -28.644112
LeftHandThumb1 -26.253704 0.000000 33.147579
Head -4.497751 -15.891603 7.760823
1788
root 2.978268 37.188999 4.147843 -6.245422 0.762545 2.507486
RightUpLeg 13.390001 -7.068859 -5.282358
RightLeg -4.337067 -0.000000 0.000000
RightFoot -12.014132 -15.391747 16.919138
RightToeBase 13.479551 -0.000000 -0.000000
LeftUpLeg 10.435592 3.478312 2.251745
LeftLeg -1.162360 -0.000000 0.000000
LeftFoot -5.916763 6.422043 -17.012932
LeftToeBase 8.775082 -0.000000 -0.000000
Spine 4.267913 0.353934 -1.560945
RightShoulder 3.636030 25.101275 -46.741223
RightArm 121.795694 -9.169945 56.802877
RightForeArm 27.519584 -0.000000 129.134888
RightHand 8.050689 0.000000 12.701296
RightHandThumb1 -24.326973 -0.000000 -32.862282
LeftShoulder -0.015457 21.232055 12.372770
LeftArm 73.325715 1.992040 -77.507001
LeftForeArm -41.679023 -0.000000 120.282051
LeftHand -12.290983 -0.000000 -28.646377
LeftHandThumb1 -26.253704 0.000000 33.147579
Head -4.456489 -15.831251 7.753005
1789
root 2.982093 37.189307 4.145207 -6.220291 0.791477 2.509315
RightUpLeg 13.379213 -7.085355 -5.287896
RightLeg -4.365553 -0.000000 0.000000
RightFoot -11.993849 -15.401530 16.899659
RightToeBase 13.488285 -0.000000 -0.000000
LeftUpLeg 10.406405 3.469143 2.241380
LeftLeg -1.171390 -0.000000 0.000000
LeftFoot -5.912206 6.414817 -17.006220
LeftToeBase 8.901011 -0.000000 -0.000000
Spine 4.224501 0.389224 -1.561502
RightShoulder 3.629795 25.014906 -46.717891
RightArm 121.909549 -9.095374 56.763389
RightForeArm 27.522097 -0.000000 129.144513
RightHand 8.221828 -0.000000 12.482787
RightHandThumb1 -24.326973 -0.000000 -32.862282
LeftShoulder -0.061298 21.217094 12.313101
LeftArm 73.341260 2.089444 -77.526548
LeftForeArm -41.674650 -0.000000 120.264928
LeftHand -12.308806 -0.000000 -28.572639
LeftHandThumb1 -26.253704 0.000000 33.147579
Head -4.418983 -15.745640 7.737229
1790
root 2.986547 37.189367 4.142123 -6.189111 0.806007 2.525338
RightUpLeg 13.353420 -7.080304 -5.308123
RightLeg -4.378093 -0.000000 0.000000
RightFoot -11.987345 -15.410762 16.912819
RightToeBase 13.463919 -0.000000 -0.000000
LeftUpLeg 10.374223 3.485604 2.220574
LeftLeg -1.181832 -0.000000 0.000000
LeftFoot -5.891327 6.381640 -17.003394
LeftToeBase 8.918069 -0.000000 -0.000000
Spine 4.174121 0.454019 -1.580145
RightShoulder 3.612851 24.977736 -46.723866
RightArm 121.928675 -9.073575 56.744550
RightForeArm 27.486103 -0.000000 129.174015
RightHand 8.263223 -0.000000 12.568566
RightHandThumb1 -24.326973 -0.000000 -32.862282
LeftShoulder -0.072692 21.157365 12.285751
LeftArm 73.302962 2.193368 -77.546505
LeftForeArm -41.621785 -0.000000 120.264485
LeftHand -12.279095 -0.000000 -28.444026
LeftHandThumb1 -26.253704 0.000000 33.147579
Head -4.383456 -15.691112 7.732070
